<svg width="101" height="60" xmlns="http://www.w3.org/2000/svg"><g fill="#ffffff" fill-rule="nonzero"><path d="M62.864.074h37.923c-1.335 5.597-5.046 12.784-7.25 18.118-9.102 0-41.455-1.121-47.571.426-7.52 1.902-14.229 15.4-20.653 17.025-3.497.885-7.511.133-11.526.133 2.316-3.237 10.147-16.846 11.916-17.69 2.775-1.327 10.255 2.045 19.947-2.585C51.876 12.526 56.005 2.606 62.864.074Z"/><path d="M48.042 23.76h33.449c-.437 2.118-6.427 16.939-6.997 17.395-2.087 1.668-35.789-.76-42.38.967-7.349 1.925-14.247 15.656-20.07 17.181-3.518.922-7.53.161-11.553.161 1.995-2.927 10.082-17.24 11.372-17.88 3.162-1.564 12.282 1.386 18.55-1.717 6.42-3.177 10.946-12.138 17.63-16.108Z"/></g></svg>