<?xml version="1.0" encoding="UTF-8"?>
<svg width="129px" height="54px" viewBox="0 0 129 54" version="1.1" xmlns="http://www.w3.org/2000/svg" xmlns:xlink="http://www.w3.org/1999/xlink">
    <title>Group</title>
    <defs>
        <linearGradient x1="65.124329%" y1="0.849643%" x2="47.793465%" y2="114.090843%" id="linearGradient-1">
            <stop stop-color="#2F2E31" offset="0%"></stop>
            <stop stop-color="#010101" offset="5%"></stop>
            <stop stop-color="#010101" offset="88%"></stop>
            <stop stop-color="#100D0B" offset="100%"></stop>
        </linearGradient>
        <linearGradient x1="-1.3111%" y1="22.954308%" x2="100.305908%" y2="91.039795%" id="linearGradient-2">
            <stop stop-color="#1C1519" offset="0%"></stop>
            <stop stop-color="#050506" offset="5%"></stop>
            <stop stop-color="#000000" offset="21%"></stop>
            <stop stop-color="#000000" offset="89%"></stop>
            <stop stop-color="#110E14" offset="100%"></stop>
        </linearGradient>
    </defs>
    <g id="Page-1" stroke="none" stroke-width="1" fill="none" fill-rule="evenodd">
        <g id="Group" transform="translate(64.305555, 26.937352) scale(-1, 1) rotate(-180.000000) translate(-64.305555, -26.937352) translate(0.490741, 0.074074)" fill-rule="nonzero">
            <path d="M80.407407,53.7265562 L127.629629,53.7265562 C125.966691,48.8641242 121.34677,42.6199192 118.601852,37.9858152 C107.268107,37.9858152 66.982213,38.9595282 59.365735,37.6154502 C50.000874,35.9628212 41.648401,24.2355872 33.648148,22.8237782 C29.29447,22.0554822 24.295666,22.7080372 19.296296,22.7080372 C22.180368,25.5209512 31.931159,37.3440412 34.134253,38.0784132 C37.589916,39.2302932 46.904148,36.3010862 58.972228,40.3237722 C66.725658,42.9082572 71.866794,51.5263682 80.407407,53.7265562 Z" id="Path" fill="url(#linearGradient-1)"></path>
            <path d="M60.87963,31.0413702 L103.703704,31.0413702 C103.144617,29.2145292 95.476172,16.4348792 94.745368,16.0413592 C92.074445,14.6031802 48.925846,16.6974022 40.486117,15.2080312 C31.078688,13.5479032 22.246553,1.70879016 14.791672,0.393216163 C10.287957,-0.401549837 5.150003,0.254333163 -7.10542736e-15,0.254333163 C2.554163,2.77857816 12.908079,15.1202982 14.560191,15.6709942 C18.608698,17.0205042 30.283984,14.4770812 38.310185,17.1524812 C46.528849,19.8920362 52.322919,27.6186862 60.87963,31.0413702 Z" id="Path" fill="url(#linearGradient-2)"></path>
        </g>
    </g>
</svg>